# Blender v3.3.1 OBJ File: 'blendah.blend'
# www.blender.org
mtllib blendah.mtl
o Cube_Cube.001
v -1.000000 -0.554955 1.000000
v -0.660614 0.554955 0.660614
v -1.000000 -0.554955 -1.000000
v -0.660614 0.554955 -0.660614
v 1.000000 -0.554955 1.000000
v 0.660614 0.554955 0.660614
v 1.000000 -0.554955 -1.000000
v 0.660614 0.554955 -0.660614
vt 0.375000 0.000000
vt 0.625000 0.000000
vt 0.625000 0.250000
vt 0.375000 0.250000
vt 0.625000 0.500000
vt 0.375000 0.500000
vt 0.625000 0.750000
vt 0.375000 0.750000
vt 0.625000 1.000000
vt 0.375000 1.000000
vt 0.125000 0.500000
vt 0.125000 0.750000
vt 0.875000 0.500000
vt 0.875000 0.750000
vn -0.9563 0.2924 0.0000
vn 0.0000 0.2924 -0.9563
vn 0.9563 0.2924 0.0000
vn 0.0000 0.2924 0.9563
vn 0.0000 -1.0000 0.0000
vn 0.0000 1.0000 0.0000
usemtl None
s off
f 1/1/1 2/2/1 4/3/1 3/4/1
f 3/4/2 4/3/2 8/5/2 7/6/2
f 7/6/3 8/5/3 6/7/3 5/8/3
f 5/8/4 6/7/4 2/9/4 1/10/4
f 3/11/5 7/6/5 5/8/5 1/12/5
f 8/5/6 4/13/6 2/14/6 6/7/6
o Cylinder_Cylinder.002
v 0.000000 0.495105 -0.659245
v 0.000000 2.302607 -0.659245
v 0.570923 0.495105 -0.329622
v 0.570923 2.302607 -0.329622
v 0.570923 0.495105 0.329622
v 0.570923 2.302607 0.329622
v 0.000000 0.495105 0.659245
v 0.000000 2.302607 0.659245
v -0.570923 0.495105 0.329622
v -0.570923 2.302607 0.329622
v -0.570923 0.495105 -0.329622
v -0.570923 2.302607 -0.329622
v 0.711882 2.291172 0.152154
v 0.711882 2.291172 0.013217
v 0.617350 2.139344 0.110646
vt 1.000000 0.500000
vt 1.000000 1.000000
vt 0.833333 1.000000
vt 0.833333 0.500000
vt 0.742360 1.000000
vt 0.734960 0.985135
vt 0.731807 1.000000
vt 0.666667 1.000000
vt 0.666667 0.500000
vt 0.500000 1.000000
vt 0.500000 0.500000
vt 0.333333 1.000000
vt 0.333333 0.500000
vt 0.457846 0.370000
vt 0.250000 0.490000
vt 0.042154 0.370000
vt 0.042154 0.130000
vt 0.250000 0.010000
vt 0.457846 0.130000
vt 0.457846 0.223801
vt 0.457846 0.238999
vt 0.166667 1.000000
vt 0.166667 0.500000
vt -0.000000 1.000000
vt -0.000000 0.500000
vt 0.750000 0.490000
vt 0.957846 0.370000
vt 0.957846 0.130000
vt 0.750000 0.010000
vt 0.542154 0.130000
vt 0.542154 0.370000
vn 0.5000 0.0000 -0.8660
vn 0.9991 -0.0422 0.0000
vn 0.5000 0.0000 0.8660
vn -0.5000 0.0000 0.8660
vn 0.0038 1.0000 -0.0000
vn -1.0000 0.0000 0.0000
vn -0.5000 0.0000 -0.8660
vn 0.0000 -1.0000 0.0000
vn 0.8489 -0.5286 0.0000
usemtl None
s off
f 9/15/7 10/16/7 12/17/7 11/18/7
f 11/18/8 12/17/8 22/19/8 23/20/8 21/21/8 14/22/8 13/23/8
f 13/23/9 14/22/9 16/24/9 15/25/9
f 15/25/10 16/24/10 18/26/10 17/27/10
f 12/28/11 10/29/11 20/30/11 18/31/11 16/32/11 14/33/11 21/34/11 22/35/11
f 17/27/12 18/26/12 20/36/12 19/37/12
f 19/37/13 20/36/13 10/38/13 9/39/13
f 9/40/14 11/41/14 13/42/14 15/43/14 17/44/14 19/45/14
f 21/21/15 23/20/15 22/19/15
o Cylinder.001_Cylinder.003
v 0.000000 0.154746 -0.826013
v 0.000000 0.145450 -0.770664
v 0.159768 0.079697 -0.838619
v 0.159768 0.070401 -0.783270
v 0.159768 -0.070401 -0.863830
v 0.159768 -0.079697 -0.808481
v 0.000000 -0.145450 -0.876436
v 0.000000 -0.154746 -0.821087
v -0.159768 -0.070401 -0.863830
v -0.159768 -0.079697 -0.808481
v -0.159768 0.079697 -0.838619
v -0.159768 0.070401 -0.783270
v 0.026576 0.044993 -0.844448
v 0.026576 -0.045328 -0.859619
v -0.023800 -0.045328 -0.859619
v -0.023800 0.045647 -0.844338
v 0.026576 0.046158 -0.864569
v 0.026576 -0.044162 -0.879740
v -0.023800 -0.044162 -0.879740
v -0.023800 0.046812 -0.864459
vt 1.000000 0.500000
vt 1.000000 1.000000
vt 0.833333 1.000000
vt 0.833333 0.500000
vt 0.666667 1.000000
vt 0.666667 0.500000
vt 0.500000 1.000000
vt 0.500000 0.500000
vt 0.333333 1.000000
vt 0.333333 0.500000
vt 0.457846 0.370000
vt 0.250000 0.490000
vt 0.042154 0.370000
vt 0.042154 0.130000
vt 0.250000 0.010000
vt 0.457846 0.130000
vt 0.166667 1.000000
vt 0.166667 0.500000
vt -0.000000 1.000000
vt -0.000000 0.500000
vt 0.750000 0.490000
vt 0.957846 0.370000
vt 0.957846 0.130000
vt 0.784574 0.170090
vt 0.784574 0.314509
vt 0.719038 0.315555
vt 0.542154 0.370000
vt 0.719038 0.170090
vt 0.750000 0.010000
vt 0.542154 0.130000
vt 0.784574 0.314509
vt 0.719038 0.315555
vt 0.719038 0.170090
vt 0.784574 0.170090
vn 0.4300 0.8903 0.1495
vn 1.0000 0.0000 0.0000
vn 0.4300 -0.8903 -0.1495
vn -0.4300 -0.8903 -0.1495
vn -0.0000 -0.1656 0.9862
vn -1.0000 0.0000 0.0000
vn -0.4300 0.8903 0.1495
vn -0.0000 0.1656 -0.9862
vn 0.0131 0.9982 0.0578
vn 0.0000 -0.9983 -0.0578
usemtl None
s off
f 24/46/16 25/47/16 27/48/16 26/49/16
f 26/49/17 27/48/17 29/50/17 28/51/17
f 28/51/18 29/50/18 31/52/18 30/53/18
f 30/53/19 31/52/19 33/54/19 32/55/19
f 27/56/20 25/57/20 35/58/20 33/59/20 31/60/20 29/61/20
f 32/55/21 33/54/21 35/62/21 34/63/21
f 34/63/22 35/62/22 25/64/22 24/65/22
f 24/66/23 26/67/23 28/68/23 37/69/23 36/70/23 39/71/23 34/72/23
f 34/72/23 39/71/23 38/73/23 37/69/23 28/68/23 30/74/23 32/75/23
f 39/71/24 36/70/24 40/76/24 43/77/24
f 42/78/23 43/77/23 40/76/23 41/79/23
f 37/69/25 38/73/25 42/78/25 41/79/25
f 38/73/21 39/71/21 43/77/21 42/78/21
f 36/70/17 37/69/17 41/79/17 40/76/17
o Cylinder.002_Cylinder.004
v -0.565188 0.885241 0.061088
v -0.556565 2.041191 0.061088
v -0.565270 0.831462 0.030544
v -0.555820 2.094966 0.030544
v -0.565270 0.831462 -0.030544
v -0.555820 2.094966 -0.030544
v -0.565188 0.885241 -0.061088
v -0.556565 2.041191 -0.061088
v -0.565107 0.939021 -0.030544
v -0.557311 1.987416 -0.030544
v -0.565107 0.939021 0.030544
v -0.557311 1.987416 0.030544
v -0.905799 1.476574 0.051020
v -0.950716 1.476574 0.025510
v -0.950716 1.476574 -0.025510
v -0.905799 1.476574 -0.051020
v -0.860882 1.476574 -0.025510
v -0.860882 1.476574 0.025510
v -0.855457 1.789750 0.055026
v -0.903900 1.789750 0.027513
v -0.903900 1.789750 -0.027513
v -0.855457 1.789750 -0.055026
v -0.807014 1.789750 -0.027513
v -0.807014 1.789750 0.027513
v -0.909413 1.137054 0.028752
v -0.909413 1.137054 -0.028752
v -0.858789 1.137054 -0.057504
v -0.808164 1.137054 -0.028752
v -0.808164 1.137054 0.028752
v -0.858789 1.137054 0.057504
v -0.698620 1.921689 0.060411
v -0.722636 1.950455 0.030205
v -0.722636 1.950455 -0.030205
v -0.698620 1.921689 -0.060411
v -0.674604 1.892922 -0.030205
v -0.674604 1.892922 0.030205
v -0.723787 0.969211 0.031588
v -0.723787 0.969211 -0.031588
v -0.698429 0.999518 -0.063177
v -0.673071 1.029825 -0.031588
v -0.673071 1.029825 0.031588
v -0.698429 0.999518 0.063177
vt 1.000000 0.937001
vt 1.000000 1.000000
vt 0.833333 1.000000
vt 0.833333 0.937001
vt 0.666667 1.000000
vt 0.666667 0.937001
vt 0.500000 1.000000
vt 0.500000 0.937001
vt 0.333333 1.000000
vt 0.333333 0.937001
vt 0.457846 0.370000
vt 0.250000 0.490000
vt 0.042154 0.370000
vt 0.042154 0.130000
vt 0.250000 0.010000
vt 0.457846 0.130000
vt 0.166667 1.000000
vt 0.166667 0.937001
vt -0.000000 1.000000
vt -0.000000 0.937001
vt 0.750000 0.490000
vt 0.957846 0.370000
vt 0.957846 0.130000
vt 0.750000 0.010000
vt 0.542154 0.130000
vt 0.542154 0.370000
vt 0.166667 0.625000
vt 0.166667 0.750000
vt -0.000000 0.750000
vt -0.000000 0.625000
vt 0.333333 0.625000
vt 0.333333 0.750000
vt 0.500000 0.625000
vt 0.500000 0.750000
vt 0.666667 0.625000
vt 0.666667 0.750000
vt 0.833333 0.625000
vt 0.833333 0.750000
vt 1.000000 0.625000
vt 1.000000 0.750000
vt 0.166667 0.875000
vt -0.000000 0.875000
vt 0.333333 0.875000
vt 0.500000 0.875000
vt 0.666667 0.875000
vt 0.833333 0.875000
vt 1.000000 0.875000
vt 1.000000 0.562500
vt 0.833333 0.562500
vt 0.666667 0.562500
vt 0.500000 0.562500
vt 0.333333 0.562500
vt 0.166667 0.562500
vt -0.000000 0.562500
vt 0.166667 0.500000
vt -0.000000 0.500000
vt 0.333333 0.500000
vt 0.500000 0.500000
vt 0.666667 0.500000
vt 0.833333 0.500000
vt 1.000000 0.500000
vn -0.4015 0.4667 0.7880
vn -0.6548 0.7558 0.0000
vn -0.4015 0.4667 -0.7880
vn 0.3873 -0.4732 -0.7913
vn 0.9999 -0.0139 0.0000
vn 0.6274 -0.7787 0.0000
vn 0.3873 -0.4732 0.7913
vn 1.0000 -0.0015 0.0000
vn 0.4921 0.0847 0.8664
vn 0.9882 0.1534 0.0000
vn 0.4921 0.0847 -0.8664
vn -0.4932 -0.0517 -0.8684
vn -0.9927 -0.1208 0.0000
vn -0.4932 -0.0517 0.8684
vn 0.4918 -0.0901 0.8660
vn 0.9855 -0.1695 0.0000
vn 0.4918 -0.0901 -0.8660
vn -0.4927 0.0681 -0.8675
vn -0.9890 0.1478 0.0000
vn -0.4927 0.0681 0.8675
vn -0.4294 -0.4649 0.7742
vn -0.6707 -0.7417 0.0000
vn -0.4294 -0.4649 -0.7742
vn 0.4008 0.5102 -0.7609
vn 0.6217 0.7833 0.0000
vn 0.4008 0.5102 0.7609
vn 0.3986 -0.5165 0.7579
vn 0.6146 -0.7888 0.0000
vn 0.3986 -0.5165 -0.7579
vn -0.4270 0.4720 -0.7713
vn -0.6634 0.7483 0.0000
vn -0.4270 0.4720 0.7713
vn 0.4030 0.4619 0.7901
vn 0.6437 0.7653 0.0000
vn 0.4030 0.4619 -0.7901
vn -0.3941 -0.4661 -0.7921
vn -0.6559 -0.7548 -0.0000
vn -0.3941 -0.4661 0.7921
usemtl None
s off
f 74/80/26 45/81/26 47/82/26 75/83/26
f 75/83/27 47/82/27 49/84/27 76/85/27
f 76/85/28 49/84/28 51/86/28 77/87/28
f 77/87/29 51/86/29 53/88/29 78/89/29
f 47/90/30 45/91/30 55/92/30 53/93/30 51/94/30 49/95/30
f 78/89/31 53/88/31 55/96/31 79/97/31
f 79/97/32 55/96/32 45/98/32 74/99/32
f 44/100/33 46/101/33 48/102/33 50/103/33 52/104/33 54/105/33
f 72/106/34 61/107/34 56/108/34 73/109/34
f 71/110/35 60/111/35 61/107/35 72/106/35
f 70/112/36 59/113/36 60/111/36 71/110/36
f 69/114/37 58/115/37 59/113/37 70/112/37
f 68/116/38 57/117/38 58/115/38 69/114/38
f 73/118/39 56/119/39 57/117/39 68/116/39
f 61/107/40 67/120/40 62/121/40 56/108/40
f 60/111/41 66/122/41 67/120/41 61/107/41
f 59/113/42 65/123/42 66/122/42 60/111/42
f 58/115/43 64/124/43 65/123/43 59/113/43
f 57/117/44 63/125/44 64/124/44 58/115/44
f 56/119/45 62/126/45 63/125/45 57/117/45
f 85/127/46 73/118/46 68/116/46 80/128/46
f 80/128/47 68/116/47 69/114/47 81/129/47
f 81/129/48 69/114/48 70/112/48 82/130/48
f 82/130/49 70/112/49 71/110/49 83/131/49
f 83/131/50 71/110/50 72/106/50 84/132/50
f 84/132/51 72/106/51 73/109/51 85/133/51
f 67/120/52 79/97/52 74/99/52 62/121/52
f 66/122/53 78/89/53 79/97/53 67/120/53
f 65/123/54 77/87/54 78/89/54 66/122/54
f 64/124/55 76/85/55 77/87/55 65/123/55
f 63/125/56 75/83/56 76/85/56 64/124/56
f 62/126/57 74/80/57 75/83/57 63/125/57
f 54/134/58 84/132/58 85/133/58 44/135/58
f 52/136/59 83/131/59 84/132/59 54/134/59
f 50/137/60 82/130/60 83/131/60 52/136/60
f 48/138/61 81/129/61 82/130/61 50/137/61
f 46/139/62 80/128/62 81/129/62 48/138/62
f 44/140/63 85/127/63 80/128/63 46/139/63
